<svg width="56" height="33" viewBox="0 0 56 33" fill="none" xmlns="http://www.w3.org/2000/svg">
<path fill-rule="evenodd" clip-rule="evenodd" d="M41.0611 13.4404C40.4568 10.6546 38.9689 8.02012 36.5759 5.98216C30.7287 1.00194 22.4362 1.98695 17.7594 7.64437L17.7592 7.64464L17.7589 7.64492L0.772099 28.1934C-0.33001 29.5267 -0.244223 31.0098 0.978642 32.0513C2.20151 33.0929 3.6555 32.921 4.75761 31.5879L14.9288 19.2839L21.698 11.0958L21.6993 11.0969C21.7146 11.0778 21.7291 11.0581 21.7447 11.0392C21.8373 10.9272 21.9318 10.819 22.0277 10.7134C22.0433 10.6964 22.0597 10.6801 22.0753 10.6629C25.1794 7.30854 30.0627 7.24781 33.2709 9.98015C33.2709 9.98015 33.29 9.99236 33.3261 10.0126C37.0944 13.268 36.8942 18.4811 34.2452 21.6854C34.1528 21.7972 33.9304 22.0446 33.9146 22.0615C30.8107 25.4158 26.0012 25.4879 22.664 22.7118C21.9673 22.11 21.4064 21.4414 20.9718 20.7307C20.4505 19.8785 19.2621 19.7925 18.628 20.5618L16.4494 23.2037C17.2024 24.4999 18.1892 25.6992 19.414 26.7425C25.2611 31.7224 33.5537 30.7374 38.2304 25.0803C38.2304 25.0803 41.9684 20.6805 41.0611 13.4404Z" fill="#313131"/>
<path fill-rule="evenodd" clip-rule="evenodd" d="M41.0697 13.442L51.2411 1.13823C52.3432 -0.195079 53.7969 -0.366734 55.0198 0.674568C56.2427 1.71615 56.3287 3.19948 55.2266 4.53252L38.2305 25.0796C33.5538 30.737 25.261 31.7217 19.4138 26.7418C18.1893 25.6988 17.2025 24.4992 16.4493 23.2033L18.6278 20.5611C19.2622 19.7921 20.4506 19.8781 20.9719 20.7302C21.4066 21.4407 21.9759 22.1115 22.6726 22.7133C25.9841 25.4786 30.8054 25.4179 33.9095 22.0636C33.9136 22.0591 34.1721 21.7693 34.2401 21.6873L41.0697 13.442Z" fill="#313131"/>
</svg>
